<svg width="190" height="190" viewBox="0 0 190 190" fill="none" xmlns="http://www.w3.org/2000/svg">
    <path d="M43.193 141.967c-.086.005-.172.008-.258.011-6.509.256-11.935-4.919-11.935-11.402v-25.165c3.264 0 5.908 2.632 5.908 5.877v4.67c1.57-.52 3.74-1.041 6.357-1.041 7.945 0 13.086 4.178 13.161 12.903.064 7.529-5.675 13.781-13.236 14.147h.003zm-.227-21.991c-2.694 0-4.638.595-6.058 1.265v10.726c0 2.699 2.165 4.96 4.878 4.971h.058c5.46 0 8.752-2.977 8.752-9.077 0-4.985-2.844-7.887-7.63-7.887v.002zM69.51 141.926c-6.88 0-9.178-3.498-9.178-9.152v-17.485c3.265 0 5.909 2.63 5.909 5.877V132.4c0 2.977.8 4.538 4.316 4.538s6.636-3.274 6.636-6.843v-14.806c3.264 0 5.908 2.63 5.908 5.877v8.862c0 6.508-4.496 11.801-11.038 11.867l-2.553.028v.003zM87.004 107.628c3.264 0 5.908 2.63 5.908 5.877v1.784h7.481c0 2.713-2.21 4.911-4.936 4.911h-2.545v13.169c0 2.528 1.047 3.423 3.217 3.423.352 0 .723-.022 1.1-.063 2.455-.256 4.584 1.696 4.584 4.153a23.949 23.949 0 0 1-6.431.892c-6.207 0-8.378-2.903-8.378-7.887v-26.262.003zM105.717 135.377v-29.685c3.264 0 5.908 2.632 5.908 5.877v29.685c-3.264 0-5.908-2.633-5.908-5.877zM121.664 130.615c.523 3.498 3.217 6.323 8.228 6.323.949 0 2.037-.091 3.228-.344 2.417-.512 4.701 1.308 4.701 3.767-2.467 1.19-5.535 1.636-7.929 1.636-8.677 0-14.361-4.167-14.361-13.69 0-8.705 5.609-13.392 12.489-13.392 5.529 0 9.111 2.398 10.786 6.739 1.675 4.34-1.722 8.958-6.384 8.958h-10.758v.003zm9.399-5.059c1.705 0 2.79-1.898 1.838-3.305-.994-1.465-2.647-2.349-4.729-2.349-3.291 0-5.982 2.082-6.431 5.654h9.324-.002zM159 120.274s-1.047-.298-2.616-.298c-4.712 0-7.331 5.357-7.331 8.631v6.77c0 3.247-2.644 5.877-5.908 5.877v-23.299c0-3.164 2.577-5.728 5.758-5.728v6.78c1.869-2.903 4.488-4.092 7.331-4.092 1.57 0 2.168.148 2.769.223v5.133l-.003.003zM71.556 95.24l-.495-2.217c-.191-1.046-4.58-25.887 4.917-47.583a4.058 4.058 0 0 1 3.54-2.434 4.061 4.061 0 0 1 3.763 2.07c2.068 3.674 3.981 6.58 5.44 8.27h21.824c5.261 0 9.555 4.223 9.571 9.455.017 5.61-2.226 11.256-6.146 15.48-4.083 4.398-9.443 6.82-15.097 6.82-2.752 0-4.983-2.22-4.983-4.958v-.55h4.983c8.356 0 15.687-7.795 15.706-16.69a4.038 4.038 0 0 0-4.034-4.048H88.159a4.32 4.32 0 0 1-3.153-1.377c-1.689-1.815-3.516-4.572-5.053-7.128-7.342 19.512-3.485 41.459-3.444 41.69l.493 3.2h-5.446z" fill="#fff"/>
    <path d="M89.795 69.722a3.12 3.12 0 0 0 3.129-3.112 3.12 3.12 0 0 0-3.129-3.112 3.12 3.12 0 0 0-3.128 3.112 3.12 3.12 0 0 0 3.128 3.112z" fill="#fff"/>
    <path d="m97.45 88.57-5.836-3.351a1.212 1.212 0 0 0-1.819 1.046v6.703c0 .928 1.01 1.51 1.82 1.047l5.835-3.352a1.204 1.204 0 0 0 0-2.09v-.003z" fill="#F1CC07"/>
    <path d="m97.16 90.66 5.836 3.352a1.212 1.212 0 0 0 1.819-1.047v-6.703c0-.928-1.011-1.509-1.819-1.046l-5.837 3.351a1.204 1.204 0 0 0 0 2.09v.003z" fill="#F1CC07"/>
</svg>
